<svg width="682" height="589" viewBox="0 0 682 589" fill="none" xmlns="http://www.w3.org/2000/svg">
<path d="M364.444 480.403H360.762C316.587 480.403 272.412 480.403 228.237 480.403C222.716 480.403 219.034 478.563 217.194 474.881C171.178 415.981 123.322 358.922 77.3062 300.022C75.4656 296.341 73.625 294.5 73.625 290.819C73.625 233.759 73.625 178.541 73.625 121.481C73.625 119.641 73.625 117.8 75.4656 117.8H77.3062C173.019 237.441 268.731 357.081 362.603 476.722C362.603 476.722 362.603 478.563 364.444 478.563V480.403Z" fill="#5E3FB0" stroke="#5E3FB0" stroke-width="0.008"/>
<path d="M511.694 300.022C498.809 316.587 484.084 333.153 471.2 351.559C467.519 355.241 463.838 357.081 460.156 357.081C415.981 357.081 371.806 357.081 329.472 357.081H327.631C325.791 357.081 323.95 355.241 325.791 353.4C325.791 353.4 325.791 351.559 327.631 351.559C371.806 296.341 414.141 242.962 458.316 187.744C476.722 165.656 495.128 141.728 511.694 119.641C511.694 117.8 513.534 117.8 515.375 117.8H517.216C517.216 119.641 517.216 119.641 517.216 121.481C517.216 176.7 517.216 233.759 517.216 288.978C515.375 294.5 513.534 298.181 511.694 300.022Z" fill="#5E3FB0" stroke="#5E3FB0" stroke-width="0.008"/>
<path d="M227.18 404.1C227.18 403.733 227.29 403.44 227.51 403.22C227.803 402.927 228.133 402.78 228.5 402.78H276.24C277.707 402.78 278.917 403.367 279.87 404.54L288.01 415.21C288.303 415.577 288.34 415.943 288.12 416.31C287.973 416.603 287.68 416.75 287.24 416.75H262.71V478.46C262.71 479.34 262.27 479.78 261.39 479.78H250.06C249.18 479.78 248.74 479.34 248.74 478.46V416.75H228.5C228.133 416.75 227.803 416.64 227.51 416.42C227.29 416.127 227.18 415.797 227.18 415.43V404.1ZM296.772 404.1C296.772 403.733 296.882 403.44 297.102 403.22C297.396 402.927 297.726 402.78 298.092 402.78H356.172C356.539 402.78 356.832 402.927 357.052 403.22C357.346 403.44 357.492 403.733 357.492 404.1V420.27C357.492 421.297 357.162 422.213 356.502 423.02L339.122 445.79L363.982 478.24C364.202 478.607 364.202 478.973 363.982 479.34C363.836 479.633 363.579 479.78 363.212 479.78H349.242C347.776 479.78 346.566 479.193 345.612 478.02L321.522 446.67C321.009 446.083 321.009 445.533 321.522 445.02L343.192 416.75H310.852V478.46C310.852 479.34 310.376 479.78 309.422 479.78H298.092C297.726 479.78 297.396 479.67 297.102 479.45C296.882 479.157 296.772 478.827 296.772 478.46V404.1ZM366.002 478.46L422.542 404.76C423.495 403.587 424.705 403 426.172 403H436.622C437.502 403 437.942 403.44 437.942 404.32V478.68C437.942 479.56 437.502 480 436.622 480H426.172C424.705 480 423.495 479.413 422.542 478.24L403.512 453.38L384.372 478.24C383.418 479.413 382.208 480 380.742 480H366.772C366.405 480 366.112 479.853 365.892 479.56C365.672 479.193 365.708 478.827 366.002 478.46ZM412.642 441.5L423.972 456.24V426.76L412.642 441.5ZM472.303 440.73L499.913 404.76C500.866 403.587 502.076 403 503.543 403H517.513C517.953 403 518.246 403.183 518.393 403.55C518.613 403.843 518.613 404.173 518.393 404.54L490.013 441.5L518.283 478.46C518.576 478.827 518.613 479.193 518.393 479.56C518.246 479.853 517.953 480 517.513 480H503.543C502.076 480 500.866 479.413 499.913 478.24L472.303 442.38C471.936 441.793 471.936 441.243 472.303 440.73ZM453.823 404.32C453.823 403.953 453.933 403.66 454.153 403.44C454.446 403.147 454.776 403 455.143 403H466.473C467.426 403 467.903 403.44 467.903 404.32V478.68C467.903 479.56 467.426 480 466.473 480H455.143C454.776 480 454.446 479.89 454.153 479.67C453.933 479.377 453.823 479.047 453.823 478.68V404.32ZM528.405 403H579.335C579.775 403 580.068 403.183 580.215 403.55C580.435 403.843 580.398 404.173 580.105 404.54L571.965 415.21C571.011 416.383 569.801 416.97 568.335 416.97H541.165V434.57H568.665C569.545 434.57 569.985 435.01 569.985 435.89V447.11C569.985 448.063 569.545 448.54 568.665 448.54H541.165V466.03H575.925C576.291 466.03 576.585 466.177 576.805 466.47C577.098 466.69 577.245 466.983 577.245 467.35V478.68C577.245 479.56 576.805 480 575.925 480H528.405C528.038 480 527.708 479.89 527.415 479.67C527.195 479.377 527.085 479.047 527.085 478.68V404.32C527.085 403.953 527.195 403.66 527.415 403.44C527.708 403.147 528.038 403 528.405 403ZM596.157 404.1C596.157 403.733 596.267 403.44 596.487 403.22C596.78 402.927 597.11 402.78 597.477 402.78H655.557C655.924 402.78 656.217 402.927 656.437 403.22C656.73 403.44 656.877 403.733 656.877 404.1V420.27C656.877 421.297 656.547 422.213 655.887 423.02L638.507 445.79L663.367 478.24C663.587 478.607 663.587 478.973 663.367 479.34C663.22 479.633 662.964 479.78 662.597 479.78H648.627C647.16 479.78 645.95 479.193 644.997 478.02L620.907 446.67C620.394 446.083 620.394 445.533 620.907 445.02L642.577 416.75H610.237V478.46C610.237 479.34 609.76 479.78 608.807 479.78H597.477C597.11 479.78 596.78 479.67 596.487 479.45C596.267 479.157 596.157 478.827 596.157 478.46V404.1Z" fill="#A06CD5"/>
</svg>
