<svg width="262" height="30" viewBox="0 0 262 30" fill="none" xmlns="http://www.w3.org/2000/svg">
<path d="M1.4 0.919999H5.52C5.65333 0.919999 5.77333 0.973333 5.88 1.08C5.98667 1.16 6.04 1.26666 6.04 1.4V20.28L20.4 1.56C20.7467 1.13333 21.1867 0.919999 21.72 0.919999H26.8C26.96 0.919999 27.0667 0.986666 27.12 1.12C27.2 1.25333 27.2 1.37333 27.12 1.48L6.52 28.28C6.17333 28.7067 5.73333 28.92 5.2 28.92H1.4C1.26667 28.92 1.14667 28.88 1.04 28.8C0.96 28.6933 0.92 28.5733 0.92 28.44V1.4C0.92 1.26666 0.96 1.16 1.04 1.08C1.14667 0.973333 1.26667 0.919999 1.4 0.919999ZM14.1022 28.44L34.6622 1.64C35.0089 1.21333 35.4489 0.999998 35.9822 0.999998H39.7822C40.1022 0.999998 40.2622 1.16 40.2622 1.48V28.52C40.2622 28.84 40.1022 29 39.7822 29H35.9822C35.4489 29 35.0089 28.7867 34.6622 28.36L27.7422 19.32L20.7822 28.36C20.4355 28.7867 19.9955 29 19.4622 29H14.3822C14.2489 29 14.1422 28.9467 14.0622 28.84C13.9822 28.7067 13.9955 28.5733 14.1022 28.44ZM31.0622 15L35.1822 20.36V9.64L31.0622 15ZM46.5172 0.999998H50.6372C50.9839 0.999998 51.1572 1.16 51.1572 1.48V23.92H62.3572C62.5172 23.92 62.6239 23.9867 62.6772 24.12C62.7572 24.2533 62.7572 24.3733 62.6772 24.48L59.6772 28.36C59.3305 28.7867 58.9039 29 58.3972 29H46.5172C46.3839 29 46.2639 28.96 46.1572 28.88C46.0772 28.7733 46.0372 28.6533 46.0372 28.52V1.48C46.0372 1.34667 46.0772 1.24 46.1572 1.16C46.2639 1.05333 46.3839 0.999998 46.5172 0.999998ZM64.7219 14.88C64.7219 12.8267 65.0952 10.92 65.8419 9.16C66.6152 7.37333 67.6419 5.84 68.9219 4.56C70.2285 3.25333 71.7619 2.24 73.5219 1.52C75.2819 0.773332 77.1752 0.413332 79.2019 0.439998C81.2285 0.466664 83.1219 0.866665 84.8819 1.64C86.6419 2.41333 88.1619 3.46667 89.4419 4.8C90.7485 6.13333 91.7752 7.69333 92.5219 9.48C93.2685 11.24 93.6285 13.12 93.6019 15.12C93.5752 17.1467 93.1752 19.04 92.4019 20.8C91.6285 22.56 90.5752 24.0933 89.2419 25.4C87.9352 26.7067 86.4019 27.7333 84.6419 28.48C82.8819 29.2 80.9885 29.56 78.9619 29.56C76.9619 29.56 75.0819 29.1867 73.3219 28.44C71.5885 27.6667 70.0819 26.6267 68.8019 25.32C67.5219 23.9867 66.5219 22.4267 65.8019 20.64C65.0819 18.8533 64.7219 16.9333 64.7219 14.88ZM69.8419 15.08C69.8419 16.3867 70.0952 17.6267 70.6019 18.8C71.1085 19.9733 71.7885 21 72.6419 21.88C73.4952 22.76 74.4819 23.4533 75.6019 23.96C76.7219 24.4667 77.9219 24.72 79.2019 24.72C80.4552 24.6933 81.6419 24.4133 82.7619 23.88C83.8819 23.3467 84.8552 22.64 85.6819 21.76C86.5352 20.8533 87.2019 19.8133 87.6819 18.64C88.1619 17.44 88.3885 16.1867 88.3619 14.88C88.3619 13.5733 88.1085 12.3333 87.6019 11.16C87.0952 9.98667 86.4152 8.97333 85.5619 8.12C84.7085 7.24 83.7085 6.54667 82.5619 6.04C81.4419 5.53333 80.2552 5.28 79.0019 5.28C77.7485 5.30667 76.5619 5.58667 75.4419 6.12C74.3219 6.62667 73.3485 7.33333 72.5219 8.24C71.6952 9.12 71.0419 10.1467 70.5619 11.32C70.0819 12.4933 69.8419 13.7467 69.8419 15.08ZM98.6256 23.6H102.986C103.332 23.6 103.506 23.7733 103.506 24.12V28.52C103.506 28.8667 103.332 29.04 102.986 29.04H98.6256C98.279 29.04 98.1056 28.8667 98.1056 28.52V24.12C98.1056 23.7733 98.279 23.6 98.6256 23.6ZM103.114 1.4C103.114 1.26666 103.154 1.16 103.234 1.08C103.34 0.973333 103.46 0.919999 103.594 0.919999H120.954C121.487 0.919999 121.927 1.13333 122.274 1.56L125.234 5.44C125.34 5.57333 125.354 5.70666 125.274 5.84C125.22 5.94666 125.114 6 124.954 6H116.034V28.44C116.034 28.76 115.874 28.92 115.554 28.92H111.434C111.114 28.92 110.954 28.76 110.954 28.44V6H103.594C103.46 6 103.34 5.96 103.234 5.88C103.154 5.77333 103.114 5.65333 103.114 5.52V1.4ZM128.42 1.4C128.42 1.26666 128.46 1.16 128.54 1.08C128.647 0.973333 128.767 0.919999 128.9 0.919999H150.02C150.153 0.919999 150.26 0.973333 150.34 1.08C150.447 1.16 150.5 1.26666 150.5 1.4V7.28C150.5 7.65333 150.38 7.98667 150.14 8.28L143.82 16.56L152.86 28.36C152.94 28.4933 152.94 28.6267 152.86 28.76C152.807 28.8667 152.713 28.92 152.58 28.92H147.5C146.967 28.92 146.527 28.7067 146.18 28.28L137.42 16.88C137.233 16.6667 137.233 16.4667 137.42 16.28L145.3 6H133.54V28.44C133.54 28.76 133.367 28.92 133.02 28.92H128.9C128.767 28.92 128.647 28.88 128.54 28.8C128.46 28.6933 128.42 28.5733 128.42 28.44V1.4ZM156.154 28.52V1.48C156.154 1.34667 156.194 1.24 156.274 1.16C156.381 1.05333 156.501 0.999998 156.634 0.999998H160.434C160.968 0.999998 161.408 1.21333 161.754 1.64L182.354 28.44C182.434 28.5733 182.434 28.7067 182.354 28.84C182.301 28.9467 182.194 29 182.034 29H176.954C176.421 29 175.981 28.7867 175.634 28.36L168.714 19.32L161.754 28.36C161.408 28.7867 160.968 29 160.434 29H156.634C156.501 29 156.381 28.96 156.274 28.88C156.194 28.7733 156.154 28.6533 156.154 28.52ZM161.274 9.64V20.36L165.394 15L161.274 9.64ZM192.249 14.72L202.289 1.64C202.636 1.21333 203.076 0.999998 203.609 0.999998H208.689C208.849 0.999998 208.956 1.06666 209.009 1.2C209.089 1.30666 209.089 1.42666 209.009 1.56L198.689 15L208.969 28.44C209.076 28.5733 209.089 28.7067 209.009 28.84C208.956 28.9467 208.849 29 208.689 29H203.609C203.076 29 202.636 28.7867 202.289 28.36L192.249 15.32C192.116 15.1067 192.116 14.9067 192.249 14.72ZM185.529 1.48C185.529 1.34667 185.569 1.24 185.649 1.16C185.756 1.05333 185.876 0.999998 186.009 0.999998H190.129C190.476 0.999998 190.649 1.16 190.649 1.48V28.52C190.649 28.84 190.476 29 190.129 29H186.009C185.876 29 185.756 28.96 185.649 28.88C185.569 28.7733 185.529 28.6533 185.529 28.52V1.48ZM212.65 0.999998H231.17C231.33 0.999998 231.437 1.06666 231.49 1.2C231.57 1.30666 231.557 1.42666 231.45 1.56L228.49 5.44C228.143 5.86667 227.703 6.08 227.17 6.08H217.29V12.48H227.29C227.61 12.48 227.77 12.64 227.77 12.96V17.04C227.77 17.3867 227.61 17.56 227.29 17.56H217.29V23.92H229.93C230.063 23.92 230.17 23.9733 230.25 24.08C230.357 24.16 230.41 24.2667 230.41 24.4V28.52C230.41 28.84 230.25 29 229.93 29H212.65C212.517 29 212.397 28.96 212.29 28.88C212.21 28.7733 212.17 28.6533 212.17 28.52V1.48C212.17 1.34667 212.21 1.24 212.29 1.16C212.397 1.05333 212.517 0.999998 212.65 0.999998ZM237.287 1.4C237.287 1.26666 237.327 1.16 237.407 1.08C237.514 0.973333 237.634 0.919999 237.767 0.919999H258.887C259.021 0.919999 259.127 0.973333 259.207 1.08C259.314 1.16 259.367 1.26666 259.367 1.4V7.28C259.367 7.65333 259.247 7.98667 259.007 8.28L252.687 16.56L261.727 28.36C261.807 28.4933 261.807 28.6267 261.727 28.76C261.674 28.8667 261.581 28.92 261.447 28.92H256.367C255.834 28.92 255.394 28.7067 255.047 28.28L246.287 16.88C246.101 16.6667 246.101 16.4667 246.287 16.28L254.167 6H242.407V28.44C242.407 28.76 242.234 28.92 241.887 28.92H237.767C237.634 28.92 237.514 28.88 237.407 28.8C237.327 28.6933 237.287 28.5733 237.287 28.44V1.4Z" fill="#A06CD5"/>
<path d="M5.88 1.08L5.73858 1.22142L5.74863 1.23147L5.76 1.24L5.88 1.08ZM6.04 20.28H5.84V20.8693L6.19869 20.4017L6.04 20.28ZM20.4 1.56L20.2447 1.43383L20.2413 1.43827L20.4 1.56ZM27.12 1.12L26.9343 1.19428L26.9403 1.20916L26.9485 1.2229L27.12 1.12ZM27.12 1.48L27.2786 1.60189L27.28 1.6L27.12 1.48ZM6.52 28.28L6.67528 28.4062L6.67857 28.4019L6.52 28.28ZM1.04 28.8L0.88 28.92L0.897143 28.9429L0.92 28.96L1.04 28.8ZM1.04 1.08L1.18142 1.22142L1.18142 1.22142L1.04 1.08ZM1.4 1.12H5.52V0.719999H1.4V1.12ZM5.52 1.12C5.59315 1.12 5.66405 1.14689 5.73858 1.22142L6.02142 0.938578C5.88262 0.799774 5.71352 0.719999 5.52 0.719999V1.12ZM5.76 1.24C5.81631 1.28223 5.84 1.32962 5.84 1.4H6.24C6.24 1.20371 6.15703 1.03777 6 0.919999L5.76 1.24ZM5.84 1.4V20.28H6.24V1.4H5.84ZM6.19869 20.4017L20.5587 1.68173L20.2413 1.43827L5.88131 20.1583L6.19869 20.4017ZM20.5552 1.68612C20.8653 1.30453 21.249 1.12 21.72 1.12V0.719999C21.1243 0.719999 20.6281 0.962137 20.2448 1.43388L20.5552 1.68612ZM21.72 1.12H26.8V0.719999H21.72V1.12ZM26.8 1.12C26.8526 1.12 26.88 1.13088 26.894 1.1396C26.9064 1.14732 26.9211 1.16123 26.9343 1.19428L27.3057 1.04572C27.2656 0.945439 27.2003 0.859346 27.106 0.800399C27.0133 0.742456 26.9074 0.719999 26.8 0.719999V1.12ZM26.9485 1.2229C26.9753 1.26749 26.98 1.29548 26.98 1.31C26.98 1.32192 26.9771 1.33724 26.96 1.36L27.28 1.6C27.3429 1.51609 27.38 1.41807 27.38 1.31C27.38 1.20452 27.3447 1.10584 27.2915 1.0171L26.9485 1.2229ZM26.9614 1.35811L6.36143 28.1581L6.67857 28.4019L27.2786 1.60188L26.9614 1.35811ZM6.36478 28.1539C6.05474 28.5355 5.67099 28.72 5.2 28.72V29.12C5.79567 29.12 6.29193 28.8779 6.67522 28.4061L6.36478 28.1539ZM5.2 28.72H1.4V29.12H5.2V28.72ZM1.4 28.72C1.30994 28.72 1.23205 28.694 1.16 28.64L0.92 28.96C1.06129 29.066 1.22339 29.12 1.4 29.12V28.72ZM1.2 28.68C1.14596 28.608 1.12 28.5301 1.12 28.44H0.72C0.72 28.6166 0.774036 28.7787 0.88 28.92L1.2 28.68ZM1.12 28.44V1.4H0.72V28.44H1.12ZM1.12 1.4C1.12 1.30952 1.14557 1.25727 1.18142 1.22142L0.89858 0.938577C0.774432 1.06272 0.72 1.22381 0.72 1.4H1.12ZM1.18142 1.22142C1.25595 1.14689 1.32685 1.12 1.4 1.12V0.719999C1.20648 0.719999 1.03738 0.799774 0.898579 0.938578L1.18142 1.22142ZM14.1022 28.44L14.2584 28.565L14.2609 28.5617L14.1022 28.44ZM34.6622 1.64L34.5069 1.51383L34.5035 1.51826L34.6622 1.64ZM34.6622 28.36L34.5033 28.4816L34.507 28.4861L34.6622 28.36ZM27.7422 19.32L27.901 19.1984L27.7426 18.9916L27.5837 19.198L27.7422 19.32ZM20.7822 28.36L20.9375 28.4862L20.9407 28.482L20.7822 28.36ZM14.0622 28.84L13.8907 28.9429L13.896 28.9517L13.9022 28.96L14.0622 28.84ZM31.0622 15L30.9036 14.8781L30.8099 15L30.9036 15.1219L31.0622 15ZM35.1822 20.36L35.0236 20.4819L35.3822 20.9484V20.36H35.1822ZM35.1822 9.64H35.3822V9.05163L35.0236 9.51811L35.1822 9.64ZM14.2609 28.5617L34.8209 1.76174L34.5035 1.51826L13.9435 28.3183L14.2609 28.5617ZM34.8174 1.76612C35.1275 1.38453 35.5112 1.2 35.9822 1.2V0.799998C35.3865 0.799998 34.8903 1.04214 34.507 1.51388L34.8174 1.76612ZM35.9822 1.2H39.7822V0.799998H35.9822V1.2ZM39.7822 1.2C39.9114 1.2 39.9715 1.23216 40.0008 1.26142C40.03 1.29068 40.0622 1.35083 40.0622 1.48H40.4622C40.4622 1.28917 40.4143 1.10931 40.2836 0.978577C40.1529 0.847841 39.973 0.799998 39.7822 0.799998V1.2ZM40.0622 1.48V28.52H40.4622V1.48H40.0622ZM40.0622 28.52C40.0622 28.6492 40.03 28.7093 40.0008 28.7386C39.9715 28.7678 39.9114 28.8 39.7822 28.8V29.2C39.973 29.2 40.1529 29.1522 40.2836 29.0214C40.4143 28.8907 40.4622 28.7108 40.4622 28.52H40.0622ZM39.7822 28.8H35.9822V29.2H39.7822V28.8ZM35.9822 28.8C35.5112 28.8 35.1275 28.6155 34.8174 28.2339L34.507 28.4861C34.8903 28.9579 35.3865 29.2 35.9822 29.2V28.8ZM34.821 28.2384L27.901 19.1984L27.5834 19.4416L34.5034 28.4816L34.821 28.2384ZM27.5837 19.198L20.6237 28.238L20.9407 28.482L27.9007 19.442L27.5837 19.198ZM20.627 28.2339C20.3169 28.6155 19.9332 28.8 19.4622 28.8V29.2C20.0579 29.2 20.5541 28.9579 20.9374 28.4861L20.627 28.2339ZM19.4622 28.8H14.3822V29.2H19.4622V28.8ZM14.3822 28.8C14.3118 28.8 14.2644 28.7763 14.2222 28.72L13.9022 28.96C14.02 29.117 14.1859 29.2 14.3822 29.2V28.8ZM14.2337 28.7371C14.2121 28.7012 14.2095 28.6771 14.2112 28.6599C14.2131 28.6409 14.2226 28.6097 14.2584 28.5649L13.946 28.3151C13.8751 28.4037 13.8246 28.5058 13.8132 28.6201C13.8016 28.7362 13.8322 28.8455 13.8907 28.9429L14.2337 28.7371ZM30.9036 15.1219L35.0236 20.4819L35.3408 20.2381L31.2208 14.8781L30.9036 15.1219ZM35.3822 20.36V9.64H34.9822V20.36H35.3822ZM35.0236 9.51811L30.9036 14.8781L31.2208 15.1219L35.3408 9.76188L35.0236 9.51811ZM51.1572 23.92H50.9572V24.12H51.1572V23.92ZM62.6772 24.12L62.4915 24.1943L62.4974 24.2092L62.5057 24.2229L62.6772 24.12ZM62.6772 24.48L62.8354 24.6023L62.8372 24.6L62.6772 24.48ZM59.6772 28.36L59.8325 28.4862L59.8354 28.4823L59.6772 28.36ZM46.1572 28.88L45.9972 29L46.0143 29.0229L46.0372 29.04L46.1572 28.88ZM46.1572 1.16L46.0158 1.01858L46.0158 1.01858L46.1572 1.16ZM46.5172 1.2H50.6372V0.799998H46.5172V1.2ZM50.6372 1.2C50.7835 1.2 50.8559 1.23409 50.8915 1.26696C50.9241 1.29703 50.9572 1.35512 50.9572 1.48H51.3572C51.3572 1.28488 51.3036 1.10296 51.1628 0.973038C51.0251 0.845903 50.8376 0.799998 50.6372 0.799998V1.2ZM50.9572 1.48V23.92H51.3572V1.48H50.9572ZM51.1572 24.12H62.3572V23.72H51.1572V24.12ZM62.3572 24.12C62.4098 24.12 62.4372 24.1309 62.4512 24.1396C62.4635 24.1473 62.4783 24.1612 62.4915 24.1943L62.8629 24.0457C62.8228 23.9454 62.7575 23.8593 62.6632 23.8004C62.5705 23.7425 62.4646 23.72 62.3572 23.72V24.12ZM62.5057 24.2229C62.5324 24.2675 62.5372 24.2955 62.5372 24.31C62.5372 24.3219 62.5343 24.3372 62.5172 24.36L62.8372 24.6C62.9001 24.5161 62.9372 24.4181 62.9372 24.31C62.9372 24.2045 62.9019 24.1058 62.8487 24.0171L62.5057 24.2229ZM62.519 24.3577L59.519 28.2377L59.8354 28.4823L62.8354 24.6023L62.519 24.3577ZM59.522 28.2339C59.2096 28.6183 58.838 28.8 58.3972 28.8V29.2C58.9697 29.2 59.4515 28.955 59.8324 28.4861L59.522 28.2339ZM58.3972 28.8H46.5172V29.2H58.3972V28.8ZM46.5172 28.8C46.4271 28.8 46.3492 28.774 46.2772 28.72L46.0372 29.04C46.1785 29.146 46.3406 29.2 46.5172 29.2V28.8ZM46.3172 28.76C46.2632 28.688 46.2372 28.6101 46.2372 28.52H45.8372C45.8372 28.6966 45.8912 28.8587 45.9972 29L46.3172 28.76ZM46.2372 28.52V1.48H45.8372V28.52H46.2372ZM46.2372 1.48C46.2372 1.38952 46.2628 1.33727 46.2986 1.30142L46.0158 1.01858C45.8916 1.14273 45.8372 1.30381 45.8372 1.48H46.2372ZM46.2986 1.30142C46.3731 1.22689 46.444 1.2 46.5172 1.2V0.799998C46.3237 0.799998 46.1546 0.879773 46.0158 1.01858L46.2986 1.30142ZM65.8419 9.16L65.6583 9.08055L65.6578 9.08189L65.8419 9.16ZM68.9219 4.56L69.0633 4.70142L69.0633 4.70142L68.9219 4.56ZM73.5219 1.52L73.5976 1.70512L73.6 1.70411L73.5219 1.52ZM79.2019 0.439998L79.1992 0.639981L79.2019 0.439998ZM84.8819 1.64L84.8014 1.8231L84.8014 1.8231L84.8819 1.64ZM89.4419 4.8L89.2976 4.93851L89.299 4.93998L89.4419 4.8ZM92.5219 9.48L92.3373 9.55712L92.3378 9.55811L92.5219 9.48ZM93.6019 15.12L93.4019 15.1173L93.4019 15.1174L93.6019 15.12ZM92.4019 20.8L92.585 20.8805L92.585 20.8805L92.4019 20.8ZM89.2419 25.4L89.1019 25.2572L89.1005 25.2586L89.2419 25.4ZM84.6419 28.48L84.7176 28.6651L84.72 28.6641L84.6419 28.48ZM73.3219 28.44L73.2404 28.6227L73.2438 28.6241L73.3219 28.44ZM68.8019 25.32L68.6576 25.4585L68.659 25.46L68.8019 25.32ZM65.8019 20.64L65.6164 20.7148L65.6164 20.7148L65.8019 20.64ZM70.6019 18.8L70.4183 18.8793L70.4183 18.8793L70.6019 18.8ZM72.6419 21.88L72.7855 21.7408L72.6419 21.88ZM75.6019 23.96L75.5194 24.1422L75.5194 24.1422L75.6019 23.96ZM79.2019 24.72V24.92L79.2061 24.92L79.2019 24.72ZM82.7619 23.88L82.6759 23.6994L82.6759 23.6994L82.7619 23.88ZM85.6819 21.76L85.5362 21.6229L85.5361 21.6231L85.6819 21.76ZM87.6819 18.64L87.867 18.7157L87.8676 18.7143L87.6819 18.64ZM88.3619 14.88H88.1618L88.1619 14.8841L88.3619 14.88ZM85.5619 8.12L85.4183 8.25925L85.4205 8.26142L85.5619 8.12ZM82.5619 6.04L82.4794 6.22223L82.481 6.22294L82.5619 6.04ZM79.0019 5.28V5.07995L78.9976 5.08004L79.0019 5.28ZM75.4419 6.12L75.5243 6.30226L75.5279 6.30057L75.4419 6.12ZM72.5219 8.24L72.6677 8.37695L72.6697 8.37475L72.5219 8.24ZM70.5619 11.32L70.747 11.3957L70.747 11.3957L70.5619 11.32ZM64.9219 14.88C64.9219 12.8515 65.2906 10.9716 66.026 9.23811L65.6578 9.08189C64.8999 10.8684 64.5219 12.8018 64.5219 14.88H64.9219ZM66.0254 9.23944C66.7895 7.47415 67.8024 5.96229 69.0633 4.70142L68.7805 4.41858C67.4813 5.71771 66.4409 7.27252 65.6583 9.08055L66.0254 9.23944ZM69.0633 4.70142C70.3506 3.41408 71.8615 2.41535 73.5976 1.70511L73.4461 1.33489C71.6623 2.06465 70.1065 3.09258 68.7805 4.41858L69.0633 4.70142ZM73.6 1.70411C75.3329 0.96892 77.1986 0.613657 79.1992 0.639981L79.2045 0.240015C77.1518 0.213007 75.2308 0.577744 73.4438 1.33588L73.6 1.70411ZM79.1992 0.639981C81.2006 0.666314 83.0673 1.06114 84.8014 1.8231L84.9623 1.4569C83.1765 0.672195 81.2565 0.267015 79.2045 0.240015L79.1992 0.639981ZM84.8014 1.8231C86.5384 2.58633 88.0365 3.62483 89.2976 4.93851L89.5862 4.66149C88.2873 3.3085 86.7453 2.24034 84.9623 1.4569L84.8014 1.8231ZM89.299 4.93998C90.5873 6.25452 91.6001 7.79297 92.3373 9.55712L92.7064 9.40288C91.9503 7.59369 90.9098 6.01214 89.5847 4.66001L89.299 4.93998ZM92.3378 9.55811C93.0731 11.2914 93.4282 13.1438 93.4019 15.1173L93.8019 15.1227C93.8289 13.0962 93.464 11.1886 92.706 9.40189L92.3378 9.55811ZM93.4019 15.1174C93.3756 17.1187 92.9807 18.9854 92.2188 20.7195L92.585 20.8805C93.3697 19.0946 93.7749 17.1746 93.8019 15.1226L93.4019 15.1174ZM92.2188 20.7195C91.4554 22.4569 90.4165 23.9689 89.1019 25.2572L89.3819 25.5428C90.734 24.2178 91.8017 22.6631 92.585 20.8805L92.2188 20.7195ZM89.1005 25.2586C87.8126 26.5464 86.301 27.5589 84.5638 28.2959L84.72 28.6641C86.5028 27.9078 88.0578 26.8669 89.3833 25.5414L89.1005 25.2586ZM84.5662 28.2949C82.8317 29.0044 80.9643 29.36 78.9619 29.36V29.76C81.0128 29.76 82.932 29.3956 84.7176 28.6651L84.5662 28.2949ZM78.9619 29.36C76.9875 29.36 75.1341 28.9916 73.4 28.2559L73.2438 28.6241C75.0296 29.3817 76.9363 29.76 78.9619 29.76V29.36ZM73.4034 28.2574C71.6921 27.4939 70.2065 26.4681 68.9447 25.18L68.659 25.46C69.9573 26.7853 71.485 27.8395 73.2404 28.6226L73.4034 28.2574ZM68.9462 25.1815C67.6846 23.8674 66.6982 22.3292 65.9874 20.5652L65.6164 20.7148C66.3455 22.5241 67.3592 24.106 68.6576 25.4585L68.9462 25.1815ZM65.9874 20.5652C65.2776 18.8039 64.9219 16.9094 64.9219 14.88H64.5219C64.5219 16.9572 64.8862 18.9028 65.6164 20.7148L65.9874 20.5652ZM69.6419 15.08C69.6419 16.4133 69.9005 17.6803 70.4183 18.8793L70.7855 18.7207C70.2899 17.573 70.0419 16.36 70.0419 15.08H69.6419ZM70.4183 18.8793C70.9341 20.0739 71.6274 21.1211 72.4983 22.0192L72.7855 21.7408C71.9497 20.8789 71.283 19.8728 70.7855 18.7207L70.4183 18.8793ZM72.4983 22.0192C73.3692 22.9173 74.3766 23.6252 75.5194 24.1422L75.6843 23.7778C74.5871 23.2814 73.6212 22.6027 72.7855 21.7408L72.4983 22.0192ZM75.5194 24.1422C76.6664 24.6611 77.8946 24.92 79.2019 24.92V24.52C77.9491 24.52 76.7773 24.2722 75.6843 23.7778L75.5194 24.1422ZM79.2061 24.92C80.4875 24.8927 81.702 24.6062 82.8479 24.0606L82.6759 23.6994C81.5817 24.2205 80.423 24.494 79.1976 24.52L79.2061 24.92ZM82.8479 24.0606C83.9897 23.5168 84.9835 22.7956 85.8276 21.8969L85.5361 21.6231C84.7269 22.4844 83.774 23.1765 82.6759 23.6994L82.8479 24.0606ZM85.8275 21.8971C86.698 20.9722 87.3779 19.9113 87.867 18.7157L87.4968 18.5643C87.0259 19.7153 86.3725 20.7344 85.5362 21.6229L85.8275 21.8971ZM87.8676 18.7143C88.3576 17.4891 88.589 16.2091 88.5618 14.8759L88.1619 14.8841C88.188 16.1642 87.9661 17.3909 87.4962 18.5657L87.8676 18.7143ZM88.5619 14.88C88.5619 13.5467 88.3032 12.2797 87.7855 11.0807L87.4183 11.2393C87.9139 12.387 88.1619 13.6 88.1619 14.88H88.5619ZM87.7855 11.0807C87.2694 9.88558 86.5755 8.85081 85.7033 7.97858L85.4205 8.26142C86.2549 9.09586 86.921 10.0878 87.4183 11.2393L87.7855 11.0807ZM85.7055 7.98077C84.8338 7.08188 83.8124 6.37389 82.6427 5.85706L82.481 6.22294C83.6047 6.71945 84.5833 7.39812 85.4183 8.25923L85.7055 7.98077ZM82.6443 5.85778C81.4979 5.33916 80.2831 5.08 79.0019 5.08V5.48C80.2274 5.48 81.3859 5.7275 82.4794 6.22222L82.6443 5.85778ZM78.9976 5.08004C77.7163 5.10731 76.5017 5.39379 75.3559 5.93943L75.5279 6.30057C76.622 5.77954 77.7808 5.50602 79.0061 5.47995L78.9976 5.08004ZM75.3594 5.93778C74.2147 6.45564 73.2191 7.17844 72.3741 8.10525L72.6697 8.37475C73.478 7.48823 74.429 6.7977 75.5243 6.30222L75.3594 5.93778ZM72.3761 8.10306C71.5319 9.00177 70.8656 10.0494 70.3768 11.2443L70.747 11.3957C71.2182 10.2439 71.8586 9.23823 72.6676 8.37693L72.3761 8.10306ZM70.3768 11.2443C69.8864 12.4429 69.6419 13.7221 69.6419 15.08H70.0419C70.0419 13.7713 70.2773 12.5438 70.747 11.3957L70.3768 11.2443ZM98.6256 23.8H102.986V23.4H98.6256V23.8ZM102.986 23.8C103.128 23.8 103.198 23.8355 103.234 23.8714C103.27 23.9074 103.306 23.9775 103.306 24.12H103.706C103.706 23.9158 103.654 23.726 103.517 23.5886C103.38 23.4512 103.19 23.4 102.986 23.4V23.8ZM103.306 24.12V28.52H103.706V24.12H103.306ZM103.306 28.52C103.306 28.6625 103.27 28.7326 103.234 28.7686C103.198 28.8045 103.128 28.84 102.986 28.84V29.24C103.19 29.24 103.38 29.1888 103.517 29.0514C103.654 28.914 103.706 28.7242 103.706 28.52H103.306ZM102.986 28.84H98.6256V29.24H102.986V28.84ZM98.6256 28.84C98.4831 28.84 98.413 28.8045 98.377 28.7686C98.3411 28.7326 98.3056 28.6625 98.3056 28.52H97.9056C97.9056 28.7242 97.9568 28.914 98.0942 29.0514C98.2316 29.1888 98.4215 29.24 98.6256 29.24V28.84ZM98.3056 28.52V24.12H97.9056V28.52H98.3056ZM98.3056 24.12C98.3056 23.9775 98.3411 23.9074 98.377 23.8714C98.413 23.8355 98.4831 23.8 98.6256 23.8V23.4C98.4215 23.4 98.2316 23.4512 98.0942 23.5886C97.9568 23.726 97.9056 23.9158 97.9056 24.12H98.3056ZM103.234 1.08L103.375 1.22142L103.375 1.22142L103.234 1.08ZM122.274 1.56L122.433 1.43863L122.429 1.43388L122.274 1.56ZM125.234 5.44L125.075 5.56134L125.078 5.56494L125.234 5.44ZM125.274 5.84L125.102 5.7371L125.098 5.74369L125.095 5.75056L125.274 5.84ZM116.034 6V5.8H115.834V6H116.034ZM110.954 6H111.154V5.8H110.954V6ZM103.234 5.88L103.074 6L103.091 6.02286L103.114 6.04L103.234 5.88ZM103.314 1.4C103.314 1.30952 103.339 1.25727 103.375 1.22142L103.092 0.938577C102.968 1.06272 102.914 1.22381 102.914 1.4H103.314ZM103.375 1.22142C103.45 1.14689 103.521 1.12 103.594 1.12V0.719999C103.4 0.719999 103.231 0.799774 103.092 0.938578L103.375 1.22142ZM103.594 1.12H120.954V0.719999H103.594V1.12ZM120.954 1.12C121.425 1.12 121.808 1.30453 122.119 1.68612L122.429 1.43388C122.046 0.962137 121.549 0.719999 120.954 0.719999V1.12ZM122.115 1.68131L125.075 5.56131L125.393 5.31869L122.433 1.43869L122.115 1.68131ZM125.078 5.56494C125.113 5.60966 125.123 5.64091 125.125 5.6599C125.126 5.67712 125.124 5.70119 125.102 5.7371L125.445 5.9429C125.504 5.84547 125.534 5.73621 125.523 5.6201C125.511 5.50575 125.461 5.40366 125.39 5.31506L125.078 5.56494ZM125.095 5.75056C125.087 5.76612 125.068 5.8 124.954 5.8V6.2C125.159 6.2 125.354 6.12721 125.453 5.92944L125.095 5.75056ZM124.954 5.8H116.034V6.2H124.954V5.8ZM115.834 6V28.44H116.234V6H115.834ZM115.834 28.44C115.834 28.5692 115.802 28.6293 115.772 28.6586C115.743 28.6878 115.683 28.72 115.554 28.72V29.12C115.745 29.12 115.924 29.0722 116.055 28.9414C116.186 28.8107 116.234 28.6308 116.234 28.44H115.834ZM115.554 28.72H111.434V29.12H115.554V28.72ZM111.434 28.72C111.305 28.72 111.244 28.6878 111.215 28.6586C111.186 28.6293 111.154 28.5692 111.154 28.44H110.754C110.754 28.6308 110.802 28.8107 110.932 28.9414C111.063 29.0722 111.243 29.12 111.434 29.12V28.72ZM111.154 28.44V6H110.754V28.44H111.154ZM110.954 5.8H103.594V6.2H110.954V5.8ZM103.594 5.8C103.504 5.8 103.426 5.77403 103.354 5.72L103.114 6.04C103.255 6.14596 103.417 6.2 103.594 6.2V5.8ZM103.394 5.76C103.34 5.68795 103.314 5.61006 103.314 5.52H102.914C102.914 5.69661 102.968 5.85871 103.074 6L103.394 5.76ZM103.314 5.52V1.4H102.914V5.52H103.314ZM128.54 1.08L128.681 1.22142L128.681 1.22142L128.54 1.08ZM150.34 1.08L150.18 1.2L150.197 1.22286L150.22 1.24L150.34 1.08ZM150.14 8.28L149.985 8.15328L149.981 8.15865L150.14 8.28ZM143.82 16.56L143.661 16.4387L143.568 16.5602L143.661 16.6816L143.82 16.56ZM152.86 28.36L153.031 28.2571L153.026 28.2474L153.019 28.2384L152.86 28.36ZM152.86 28.76L152.689 28.6571L152.685 28.6637L152.681 28.6706L152.86 28.76ZM146.18 28.28L146.021 28.4019L146.025 28.4061L146.18 28.28ZM137.42 16.88L137.579 16.7579L137.571 16.7483L137.42 16.88ZM137.42 16.28L137.561 16.4214L137.571 16.4121L137.579 16.4017L137.42 16.28ZM145.3 6L145.459 6.12167L145.705 5.8H145.3V6ZM133.54 6V5.8H133.34V6H133.54ZM128.54 28.8L128.38 28.92L128.397 28.9429L128.42 28.96L128.54 28.8ZM128.62 1.4C128.62 1.30952 128.646 1.25727 128.681 1.22142L128.399 0.938577C128.274 1.06272 128.22 1.22381 128.22 1.4H128.62ZM128.681 1.22142C128.756 1.14689 128.827 1.12 128.9 1.12V0.719999C128.706 0.719999 128.537 0.799774 128.399 0.938578L128.681 1.22142ZM128.9 1.12H150.02V0.719999H128.9V1.12ZM150.02 1.12C150.09 1.12 150.138 1.14369 150.18 1.2L150.5 0.959999C150.382 0.802972 150.216 0.719999 150.02 0.719999V1.12ZM150.22 1.24C150.276 1.28223 150.3 1.32962 150.3 1.4H150.7C150.7 1.20371 150.617 1.03777 150.46 0.919999L150.22 1.24ZM150.3 1.4V7.28H150.7V1.4H150.3ZM150.3 7.28C150.3 7.6064 150.196 7.89516 149.985 8.15335L150.295 8.40665C150.564 8.07817 150.7 7.70026 150.7 7.28H150.3ZM149.981 8.15865L143.661 16.4387L143.979 16.6813L150.299 8.40135L149.981 8.15865ZM143.661 16.6816L152.701 28.4816L153.019 28.2384L143.979 16.4384L143.661 16.6816ZM152.689 28.4629C152.713 28.5037 152.72 28.5352 152.72 28.56C152.72 28.5848 152.713 28.6163 152.689 28.6571L153.031 28.8629C153.087 28.7704 153.12 28.6686 153.12 28.56C153.12 28.4514 153.087 28.3496 153.031 28.2571L152.689 28.4629ZM152.681 28.6706C152.67 28.6926 152.659 28.7014 152.651 28.7064C152.641 28.7121 152.62 28.72 152.58 28.72V29.12C152.673 29.12 152.766 29.1013 152.849 29.0536C152.934 29.0053 152.997 28.9341 153.039 28.8494L152.681 28.6706ZM152.58 28.72H147.5V29.12H152.58V28.72ZM147.5 28.72C147.029 28.72 146.645 28.5355 146.335 28.1539L146.025 28.4061C146.408 28.8779 146.904 29.12 147.5 29.12V28.72ZM146.339 28.1581L137.579 16.7581L137.261 17.0019L146.021 28.4019L146.339 28.1581ZM137.571 16.7483C137.496 16.663 137.48 16.6047 137.48 16.57C137.48 16.5384 137.493 16.4897 137.561 16.4214L137.279 16.1386C137.16 16.257 137.08 16.4016 137.08 16.57C137.08 16.7353 137.157 16.8837 137.269 17.0117L137.571 16.7483ZM137.579 16.4017L145.459 6.12167L145.141 5.87832L137.261 16.1583L137.579 16.4017ZM145.3 5.8H133.54V6.2H145.3V5.8ZM133.34 6V28.44H133.74V6H133.34ZM133.34 28.44C133.34 28.5649 133.307 28.623 133.274 28.653C133.239 28.6859 133.166 28.72 133.02 28.72V29.12C133.22 29.12 133.408 29.0741 133.546 28.947C133.686 28.817 133.74 28.6351 133.74 28.44H133.34ZM133.02 28.72H128.9V29.12H133.02V28.72ZM128.9 28.72C128.81 28.72 128.732 28.694 128.66 28.64L128.42 28.96C128.561 29.066 128.723 29.12 128.9 29.12V28.72ZM128.7 28.68C128.646 28.608 128.62 28.5301 128.62 28.44H128.22C128.22 28.6166 128.274 28.7787 128.38 28.92L128.7 28.68ZM128.62 28.44V1.4H128.22V28.44H128.62ZM156.274 1.16L156.133 1.01858L156.133 1.01858L156.274 1.16ZM161.754 1.64L161.913 1.51807L161.91 1.51388L161.754 1.64ZM182.354 28.44L182.526 28.3371L182.52 28.3272L182.513 28.3181L182.354 28.44ZM182.354 28.84L182.183 28.7371L182.179 28.7437L182.175 28.7506L182.354 28.84ZM175.634 28.36L175.475 28.4816L175.479 28.4861L175.634 28.36ZM168.714 19.32L168.873 19.1984L168.715 18.9916L168.556 19.198L168.714 19.32ZM161.754 28.36L161.91 28.4862L161.913 28.482L161.754 28.36ZM156.274 28.88L156.114 29L156.132 29.0229L156.154 29.04L156.274 28.88ZM161.274 9.64L161.433 9.51811L161.074 9.05163V9.64H161.274ZM161.274 20.36H161.074V20.9484L161.433 20.4819L161.274 20.36ZM165.394 15L165.553 15.1219L165.647 15L165.553 14.8781L165.394 15ZM156.354 28.52V1.48H155.954V28.52H156.354ZM156.354 1.48C156.354 1.38952 156.38 1.33727 156.416 1.30142L156.133 1.01858C156.009 1.14273 155.954 1.30381 155.954 1.48H156.354ZM156.416 1.30142C156.49 1.22689 156.561 1.2 156.634 1.2V0.799998C156.441 0.799998 156.272 0.879773 156.133 1.01858L156.416 1.30142ZM156.634 1.2H160.434V0.799998H156.634V1.2ZM160.434 1.2C160.905 1.2 161.289 1.38453 161.599 1.76612L161.91 1.51388C161.526 1.04214 161.03 0.799998 160.434 0.799998V1.2ZM161.596 1.76188L182.196 28.5619L182.513 28.3181L161.913 1.51811L161.596 1.76188ZM182.183 28.5429C182.207 28.5837 182.214 28.6152 182.214 28.64C182.214 28.6648 182.207 28.6963 182.183 28.7371L182.526 28.9429C182.581 28.8504 182.614 28.7486 182.614 28.64C182.614 28.5314 182.581 28.4296 182.526 28.3371L182.183 28.5429ZM182.175 28.7506C182.168 28.7661 182.149 28.8 182.034 28.8V29.2C182.24 29.2 182.434 29.1272 182.533 28.9294L182.175 28.7506ZM182.034 28.8H176.954V29.2H182.034V28.8ZM176.954 28.8C176.483 28.8 176.1 28.6155 175.79 28.2339L175.479 28.4861C175.862 28.9579 176.359 29.2 176.954 29.2V28.8ZM175.793 28.2384L168.873 19.1984L168.556 19.4416L175.476 28.4816L175.793 28.2384ZM168.556 19.198L161.596 28.238L161.913 28.482L168.873 19.442L168.556 19.198ZM161.599 28.2339C161.289 28.6155 160.905 28.8 160.434 28.8V29.2C161.03 29.2 161.526 28.9579 161.91 28.4861L161.599 28.2339ZM160.434 28.8H156.634V29.2H160.434V28.8ZM156.634 28.8C156.544 28.8 156.466 28.774 156.394 28.72L156.154 29.04C156.296 29.146 156.458 29.2 156.634 29.2V28.8ZM156.434 28.76C156.38 28.688 156.354 28.6101 156.354 28.52H155.954C155.954 28.6966 156.008 28.8587 156.114 29L156.434 28.76ZM161.074 9.64V20.36H161.474V9.64H161.074ZM161.433 20.4819L165.553 15.1219L165.236 14.8781L161.116 20.2381L161.433 20.4819ZM165.553 14.8781L161.433 9.51811L161.116 9.76188L165.236 15.1219L165.553 14.8781ZM192.249 14.72L192.091 14.5981L192.087 14.6038L192.249 14.72ZM202.289 1.64L202.134 1.51383L202.131 1.51822L202.289 1.64ZM209.009 1.2L208.824 1.27428L208.834 1.29884L208.849 1.32L209.009 1.2ZM209.009 1.56L209.168 1.6818L209.175 1.67272L209.181 1.6629L209.009 1.56ZM198.689 15L198.531 14.8782L198.437 14.9998L198.531 15.1215L198.689 15ZM208.969 28.44L208.81 28.5615L208.813 28.5649L208.969 28.44ZM209.009 28.84L208.838 28.7371L208.834 28.7437L208.83 28.7506L209.009 28.84ZM202.289 28.36L202.131 28.4821L202.134 28.4861L202.289 28.36ZM192.249 15.32L192.08 15.426L192.085 15.4343L192.091 15.442L192.249 15.32ZM185.649 1.16L185.508 1.01858L185.508 1.01858L185.649 1.16ZM185.649 28.88L185.489 29L185.507 29.0229L185.529 29.04L185.649 28.88ZM192.408 14.8418L202.448 1.76178L202.131 1.51822L192.091 14.5982L192.408 14.8418ZM202.445 1.76612C202.755 1.38453 203.138 1.2 203.609 1.2V0.799998C203.014 0.799998 202.517 1.04214 202.134 1.51388L202.445 1.76612ZM203.609 1.2H208.689V0.799998H203.609V1.2ZM208.689 1.2C208.742 1.2 208.769 1.21087 208.783 1.2196C208.796 1.22732 208.81 1.24122 208.824 1.27428L209.195 1.12572C209.155 1.02544 209.09 0.939346 208.995 0.880398C208.903 0.822455 208.797 0.799998 208.689 0.799998V1.2ZM208.849 1.32C208.866 1.34276 208.869 1.35807 208.869 1.37C208.869 1.38452 208.865 1.41251 208.838 1.4571L209.181 1.6629C209.234 1.57415 209.269 1.47548 209.269 1.37C209.269 1.26192 209.232 1.1639 209.169 1.08L208.849 1.32ZM208.851 1.43819L198.531 14.8782L198.848 15.1218L209.168 1.6818L208.851 1.43819ZM198.531 15.1215L208.811 28.5615L209.128 28.3185L198.848 14.8785L198.531 15.1215ZM208.813 28.5649C208.849 28.6097 208.858 28.6409 208.86 28.6599C208.862 28.6771 208.859 28.7012 208.838 28.7371L209.181 28.9429C209.239 28.8455 209.27 28.7362 209.258 28.6201C209.247 28.5058 209.196 28.4037 209.126 28.3151L208.813 28.5649ZM208.83 28.7506C208.823 28.7661 208.804 28.8 208.689 28.8V29.2C208.895 29.2 209.089 29.1272 209.188 28.9294L208.83 28.7506ZM208.689 28.8H203.609V29.2H208.689V28.8ZM203.609 28.8C203.138 28.8 202.755 28.6155 202.445 28.2339L202.134 28.4861C202.517 28.9579 203.014 29.2 203.609 29.2V28.8ZM202.448 28.238L192.408 15.198L192.091 15.442L202.131 28.482L202.448 28.238ZM192.419 15.214C192.367 15.131 192.349 15.064 192.349 15.01C192.349 14.9576 192.366 14.9008 192.412 14.8362L192.087 14.6038C191.999 14.7258 191.949 14.8624 191.949 15.01C191.949 15.156 191.998 15.2957 192.08 15.426L192.419 15.214ZM185.729 1.48C185.729 1.38952 185.755 1.33727 185.791 1.30142L185.508 1.01858C185.384 1.14273 185.329 1.30381 185.329 1.48H185.729ZM185.791 1.30142C185.865 1.22689 185.936 1.2 186.009 1.2V0.799998C185.816 0.799998 185.647 0.879773 185.508 1.01858L185.791 1.30142ZM186.009 1.2H190.129V0.799998H186.009V1.2ZM190.129 1.2C190.276 1.2 190.348 1.23409 190.384 1.26696C190.416 1.29703 190.449 1.35512 190.449 1.48H190.849C190.849 1.28488 190.796 1.10296 190.655 0.973038C190.517 0.845903 190.33 0.799998 190.129 0.799998V1.2ZM190.449 1.48V28.52H190.849V1.48H190.449ZM190.449 28.52C190.449 28.6449 190.416 28.703 190.384 28.733C190.348 28.7659 190.276 28.8 190.129 28.8V29.2C190.33 29.2 190.517 29.1541 190.655 29.027C190.796 28.897 190.849 28.7151 190.849 28.52H190.449ZM190.129 28.8H186.009V29.2H190.129V28.8ZM186.009 28.8C185.919 28.8 185.841 28.774 185.769 28.72L185.529 29.04C185.671 29.146 185.833 29.2 186.009 29.2V28.8ZM185.809 28.76C185.755 28.688 185.729 28.6101 185.729 28.52H185.329C185.329 28.6966 185.383 28.8587 185.489 29L185.809 28.76ZM185.729 28.52V1.48H185.329V28.52H185.729ZM231.49 1.2L231.304 1.27428L231.314 1.29884L231.33 1.32L231.49 1.2ZM231.45 1.56L231.294 1.43503L231.291 1.43869L231.45 1.56ZM228.49 5.44L228.645 5.56618L228.649 5.56131L228.49 5.44ZM217.29 6.08V5.88H217.09V6.08H217.29ZM217.29 12.48H217.09V12.68H217.29V12.48ZM217.29 17.56V17.36H217.09V17.56H217.29ZM217.29 23.92H217.09V24.12H217.29V23.92ZM230.25 24.08L230.09 24.2L230.107 24.2229L230.13 24.24L230.25 24.08ZM212.29 28.88L212.13 29L212.147 29.0229L212.17 29.04L212.29 28.88ZM212.29 1.16L212.149 1.01858L212.149 1.01858L212.29 1.16ZM212.65 1.2H231.17V0.799998H212.65V1.2ZM231.17 1.2C231.223 1.2 231.25 1.21087 231.264 1.2196C231.276 1.22732 231.291 1.24122 231.304 1.27428L231.676 1.12572C231.636 1.02544 231.57 0.939345 231.476 0.880398C231.383 0.822455 231.277 0.799998 231.17 0.799998V1.2ZM231.33 1.32C231.337 1.32999 231.34 1.33627 231.341 1.33893C231.341 1.34124 231.342 1.34369 231.341 1.34791C231.34 1.35776 231.333 1.38627 231.294 1.43506L231.606 1.68494C231.674 1.6004 231.727 1.50224 231.739 1.39209C231.752 1.27606 231.717 1.16942 231.65 1.08L231.33 1.32ZM231.291 1.43869L228.331 5.31869L228.649 5.56131L231.609 1.68131L231.291 1.43869ZM228.335 5.31388C228.025 5.69547 227.641 5.88 227.17 5.88V6.28C227.766 6.28 228.262 6.03786 228.645 5.56612L228.335 5.31388ZM227.17 5.88H217.29V6.28H227.17V5.88ZM217.09 6.08V12.48H217.49V6.08H217.09ZM217.29 12.68H227.29V12.28H217.29V12.68ZM227.29 12.68C227.419 12.68 227.479 12.7122 227.509 12.7414C227.538 12.7707 227.57 12.8308 227.57 12.96H227.97C227.97 12.7692 227.922 12.5893 227.791 12.4586C227.661 12.3278 227.481 12.28 227.29 12.28V12.68ZM227.57 12.96V17.04H227.97V12.96H227.57ZM227.57 17.04C227.57 17.1863 227.536 17.2587 227.503 17.2943C227.473 17.3269 227.415 17.36 227.29 17.36V17.76C227.485 17.76 227.667 17.7064 227.797 17.5657C227.924 17.4279 227.97 17.2404 227.97 17.04H227.57ZM227.29 17.36H217.29V17.76H227.29V17.36ZM217.09 17.56V23.92H217.49V17.56H217.09ZM217.29 24.12H229.93V23.72H217.29V24.12ZM229.93 24.12C230 24.12 230.048 24.1437 230.09 24.2L230.41 23.96C230.292 23.803 230.126 23.72 229.93 23.72V24.12ZM230.13 24.24C230.186 24.2822 230.21 24.3296 230.21 24.4H230.61C230.61 24.2037 230.527 24.0378 230.37 23.92L230.13 24.24ZM230.21 24.4V28.52H230.61V24.4H230.21ZM230.21 28.52C230.21 28.6492 230.178 28.7093 230.149 28.7386C230.119 28.7678 230.059 28.8 229.93 28.8V29.2C230.121 29.2 230.301 29.1522 230.431 29.0214C230.562 28.8907 230.61 28.7108 230.61 28.52H230.21ZM229.93 28.8H212.65V29.2H229.93V28.8ZM212.65 28.8C212.56 28.8 212.482 28.774 212.41 28.72L212.17 29.04C212.311 29.146 212.473 29.2 212.65 29.2V28.8ZM212.45 28.76C212.396 28.688 212.37 28.6101 212.37 28.52H211.97C211.97 28.6966 212.024 28.8587 212.13 29L212.45 28.76ZM212.37 28.52V1.48H211.97V28.52H212.37ZM212.37 1.48C212.37 1.38952 212.396 1.33727 212.431 1.30142L212.149 1.01858C212.024 1.14273 211.97 1.30381 211.97 1.48H212.37ZM212.431 1.30142C212.506 1.22689 212.577 1.2 212.65 1.2V0.799998C212.456 0.799998 212.287 0.879773 212.149 1.01858L212.431 1.30142ZM237.407 1.08L237.549 1.22142L237.549 1.22142L237.407 1.08ZM259.207 1.08L259.047 1.2L259.064 1.22286L259.087 1.24L259.207 1.08ZM259.007 8.28L258.852 8.15328L258.848 8.15865L259.007 8.28ZM252.687 16.56L252.528 16.4387L252.435 16.5602L252.528 16.6816L252.687 16.56ZM261.727 28.36L261.899 28.2571L261.893 28.2474L261.886 28.2384L261.727 28.36ZM261.727 28.76L261.556 28.6571L261.552 28.6637L261.548 28.6706L261.727 28.76ZM255.047 28.28L254.889 28.4019L254.892 28.4061L255.047 28.28ZM246.287 16.88L246.446 16.7579L246.438 16.7483L246.287 16.88ZM246.287 16.28L246.429 16.4214L246.438 16.4121L246.446 16.4017L246.287 16.28ZM254.167 6L254.326 6.12167L254.572 5.8H254.167V6ZM242.407 6V5.8H242.207V6H242.407ZM237.407 28.8L237.247 28.92L237.264 28.9429L237.287 28.96L237.407 28.8ZM237.487 1.4C237.487 1.30952 237.513 1.25727 237.549 1.22142L237.266 0.938577C237.142 1.06272 237.087 1.22381 237.087 1.4H237.487ZM237.549 1.22142C237.623 1.14689 237.694 1.12 237.767 1.12V0.719999C237.574 0.719999 237.405 0.799774 237.266 0.938578L237.549 1.22142ZM237.767 1.12H258.887V0.719999H237.767V1.12ZM258.887 1.12C258.958 1.12 259.005 1.14369 259.047 1.2L259.367 0.959999C259.249 0.802972 259.083 0.719999 258.887 0.719999V1.12ZM259.087 1.24C259.143 1.28223 259.167 1.32962 259.167 1.4H259.567C259.567 1.20371 259.484 1.03777 259.327 0.919999L259.087 1.24ZM259.167 1.4V7.28H259.567V1.4H259.167ZM259.167 7.28C259.167 7.6064 259.064 7.89516 258.852 8.15335L259.162 8.40665C259.431 8.07817 259.567 7.70026 259.567 7.28H259.167ZM258.848 8.15865L252.528 16.4387L252.846 16.6813L259.166 8.40135L258.848 8.15865ZM252.528 16.6816L261.568 28.4816L261.886 28.2384L252.846 16.4384L252.528 16.6816ZM261.556 28.4629C261.58 28.5037 261.587 28.5352 261.587 28.56C261.587 28.5848 261.58 28.6163 261.556 28.6571L261.899 28.8629C261.954 28.7704 261.987 28.6686 261.987 28.56C261.987 28.4514 261.954 28.3496 261.899 28.2571L261.556 28.4629ZM261.548 28.6706C261.537 28.6926 261.527 28.7014 261.518 28.7064C261.508 28.7121 261.487 28.72 261.447 28.72V29.12C261.54 29.12 261.633 29.1013 261.716 29.0536C261.801 29.0053 261.864 28.9341 261.906 28.8494L261.548 28.6706ZM261.447 28.72H256.367V29.12H261.447V28.72ZM256.367 28.72C255.896 28.72 255.512 28.5355 255.202 28.1539L254.892 28.4061C255.275 28.8779 255.772 29.12 256.367 29.12V28.72ZM255.206 28.1581L246.446 16.7581L246.129 17.0019L254.889 28.4019L255.206 28.1581ZM246.438 16.7483C246.363 16.663 246.347 16.6047 246.347 16.57C246.347 16.5384 246.36 16.4897 246.429 16.4214L246.146 16.1386C246.027 16.257 245.947 16.4016 245.947 16.57C245.947 16.7353 246.025 16.8837 246.137 17.0117L246.438 16.7483ZM246.446 16.4017L254.326 6.12167L254.008 5.87832L246.128 16.1583L246.446 16.4017ZM254.167 5.8H242.407V6.2H254.167V5.8ZM242.207 6V28.44H242.607V6H242.207ZM242.207 28.44C242.207 28.5649 242.174 28.623 242.142 28.653C242.106 28.6859 242.033 28.72 241.887 28.72V29.12C242.088 29.12 242.275 29.0741 242.413 28.947C242.554 28.817 242.607 28.6351 242.607 28.44H242.207ZM241.887 28.72H237.767V29.12H241.887V28.72ZM237.767 28.72C237.677 28.72 237.599 28.694 237.527 28.64L237.287 28.96C237.428 29.066 237.591 29.12 237.767 29.12V28.72ZM237.567 28.68C237.513 28.608 237.487 28.5301 237.487 28.44H237.087C237.087 28.6166 237.141 28.7787 237.247 28.92L237.567 28.68ZM237.487 28.44V1.4H237.087V28.44H237.487Z" fill="#A06CD5"/>
</svg>
